<?xml version="1.0" standalone="no"?>
<!DOCTYPE svg PUBLIC "-//W3C//DTD SVG 20010904//EN" "http://www.w3.org/TR/2001/REC-SVG-20010904/DTD/svg10.dtd">
<svg
    version="1.0"
    xmlns="http://www.w3.org/2000/svg"
    width="515.000000pt"
    height="515.000000pt"
    viewBox="0 0 515.000000 515.000000"
    preserveAspectRatio="xMidYMid meet"
>
    <g
        transform="translate(0.000000,515.000000) scale(0.100000,-0.100000)"
        fill="#000000"
        stroke="none"
    >
        <path
            d="M1322 4706 c-12 -15 -108 -177 -145 -246 -16 -30 -35 -62 -42 -70 -7
-8 -14 -20 -16 -25 -4 -10 -117 -208 -140 -245 -9 -16 -162 -281 -203 -353
-13 -23 -99 -172 -191 -331 -92 -159 -177 -307 -190 -330 -13 -23 -85 -147
-160 -276 -76 -129 -138 -239 -138 -245 0 -10 36 -75 167 -298 25 -43 46 -79
46 -81 0 -2 42 -75 93 -162 52 -88 106 -181 121 -209 64 -115 260 -452 277
-477 11 -15 19 -29 19 -32 0 -3 13 -27 29 -54 15 -26 39 -68 53 -93 14 -24 89
-153 166 -287 78 -134 142 -248 142 -253 0 -5 5 -9 10 -9 6 0 10 -5 10 -10 0
-6 21 -46 46 -90 44 -76 48 -80 83 -81 237 -4 2422 0 2429 5 6 4 31 41 55 84
41 72 741 1285 850 1472 27 47 59 103 71 125 12 22 75 131 139 241 129 222
126 210 73 287 -14 21 -26 40 -26 43 0 3 -24 47 -54 97 -103 174 -226 388
-226 391 0 2 -24 43 -53 92 -29 49 -56 96 -60 104 -4 8 -17 31 -28 50 -12 19
-88 150 -169 290 -81 140 -223 386 -315 545 -93 160 -179 310 -193 335 -13 25
-33 59 -43 76 l-19 32 -1230 0 c-914 0 -1232 -3 -1238 -12z"
        />
    </g>
</svg>
